<?xml version="1.0" encoding="utf-8"?>
<!-- Generator: Adobe Illustrator 26.0.1, SVG Export Plug-In . SVG Version: 6.00 Build 0)  -->
<svg version="1.1" id="Layer_1" xmlns="http://www.w3.org/2000/svg" xmlns:xlink="http://www.w3.org/1999/xlink" x="0px" y="0px"
	 viewBox="0 0 32 32" style="enable-background:new 0 0 32 32;" xml:space="preserve">
<path d="M15.2,1.9l-4.8,5.5C9.9,8,10.3,9,11.2,9h9.6c0.9,0,1.3-1,0.8-1.7l-4.8-5.5C16.4,1.4,15.6,1.4,15.2,1.9z"/>
<path d="M24.7,10.5l5.5,4.8c0.5,0.4,0.5,1.1,0,1.5l-5.5,4.8C24,22.1,23,21.7,23,20.8v-9.6C23,10.3,24,9.9,24.7,10.5z"/>
<path d="M21.5,24.7l-4.8,5.5c-0.4,0.5-1.1,0.5-1.5,0l-4.8-5.5C9.9,24,10.3,23,11.2,23h9.6C21.7,23,22.1,24,21.5,24.7z"/>
<path d="M7.3,21.5l-5.5-4.8c-0.5-0.4-0.5-1.1,0-1.5l5.5-4.8C8,9.9,9,10.3,9,11.2v9.6C9,21.7,8,22.1,7.3,21.5z"/>
</svg>
