<?xml version="1.0" encoding="utf-8"?>
<!-- Generator: Adobe Illustrator 26.0.1, SVG Export Plug-In . SVG Version: 6.00 Build 0)  -->
<svg version="1.1" id="Layer_1" xmlns="http://www.w3.org/2000/svg" xmlns:xlink="http://www.w3.org/1999/xlink" x="0px" y="0px"
	 viewBox="0 0 32 32" style="enable-background:new 0 0 32 32;" xml:space="preserve">
<path d="M51,16"/>
<g>
	<path d="M21,6.4L22,2c0.1-0.5-0.3-1-0.8-1h-4.3c-0.4,0-0.7,0.3-0.8,0.6L15.1,6c-0.1,0.5,0.3,1,0.8,1h4.3C20.6,7,21,6.7,21,6.4z"/>
	<path d="M17.3,24l2.8-13c0.1-0.5-0.3-1-0.8-1h-1h-4h-1.3c-0.4,0-0.7,0.3-0.8,0.6L11.2,15c-0.1,0.5,0.3,1,0.8,1h0
		c0.5,0,0.9,0.5,0.8,1L10,30c-0.1,0.5,0.3,1,0.8,1h3h2h3.3c0.4,0,0.7-0.3,0.8-0.6l0.9-4.4c0.1-0.5-0.3-1-0.8-1h-2
		C17.6,25,17.2,24.5,17.3,24z"/>
</g>
</svg>
