<?xml version="1.0" encoding="utf-8"?>
<!-- Generator: Adobe Illustrator 26.0.1, SVG Export Plug-In . SVG Version: 6.00 Build 0)  -->
<svg version="1.1" id="Layer_1" xmlns="http://www.w3.org/2000/svg" xmlns:xlink="http://www.w3.org/1999/xlink" x="0px" y="0px"
	 viewBox="0 0 100 100" style="enable-background:new 0 0 100 100;" xml:space="preserve">
<style type="text/css">
	.st0{fill:#FFFFFF;}
	.st1{fill:#763FFC;}
</style>
<polygon class="st0" points="1.1,59.1 59,1.1 59,34.1 68.8,40.9 98.9,40.9 41,98.9 41,70.4 33.3,59.1 "/>
<path class="st1" d="M98.6,0H1.4C0.6,0,0,0.6,0,1.4v97.2c0,0.8,0.6,1.4,1.4,1.4h97.2c0.8,0,1.4-0.6,1.4-1.4V1.4
	C100,0.6,99.4,0,98.6,0z M41,98.9L41,60c0-0.5-0.4-0.8-0.8-0.8h-39L59,1.1V40c0,0.5,0.4,0.8,0.8,0.8h39L41,98.9z"/>
</svg>
