<?xml version="1.0" encoding="utf-8"?>
<!-- Generator: Adobe Illustrator 26.0.1, SVG Export Plug-In . SVG Version: 6.00 Build 0)  -->
<svg version="1.1" id="Layer_1" xmlns="http://www.w3.org/2000/svg" xmlns:xlink="http://www.w3.org/1999/xlink" x="0px" y="0px"
	 viewBox="0 0 32 32" style="enable-background:new 0 0 32 32;" xml:space="preserve">
<style type="text/css">
	.st0{fill:#FAFAFB;}
</style>
<g>
	<g>
		<path class="st0" d="M30.6,30H1.4C0.6,30,0,29.4,0,28.6v-1.2C0,26.6,0.6,26,1.4,26h29.2c0.8,0,1.4,0.6,1.4,1.4v1.2
			C32,29.4,31.4,30,30.6,30z"/>
	</g>
	<g>
		<path class="st0" d="M30.6,22H1.4C0.6,22,0,21.4,0,20.6v-1.2C0,18.6,0.6,18,1.4,18h29.2c0.8,0,1.4,0.6,1.4,1.4v1.2
			C32,21.4,31.4,22,30.6,22z"/>
	</g>
	<g>
		<path class="st0" d="M30.6,14H1.4C0.6,14,0,13.4,0,12.6v-1.2C0,10.6,0.6,10,1.4,10h29.2c0.8,0,1.4,0.6,1.4,1.4v1.2
			C32,13.4,31.4,14,30.6,14z"/>
	</g>
	<g>
		<path class="st0" d="M30.6,6H1.4C0.6,6,0,5.4,0,4.6V3.4C0,2.6,0.6,2,1.4,2h29.2C31.4,2,32,2.6,32,3.4v1.2C32,5.4,31.4,6,30.6,6z"
			/>
	</g>
</g>
</svg>
