<?xml version="1.0" encoding="utf-8"?>
<!-- Generator: Adobe Illustrator 26.0.1, SVG Export Plug-In . SVG Version: 6.00 Build 0)  -->
<svg version="1.1" id="Layer_1" xmlns="http://www.w3.org/2000/svg" xmlns:xlink="http://www.w3.org/1999/xlink" x="0px" y="0px"
	 viewBox="0 0 32 32" style="enable-background:new 0 0 32 32;" xml:space="preserve">
<style type="text/css">
	.st0{fill:#C6C6CC;}
</style>
<path class="st0" d="M4,16H2c-0.6,0-1,0.5-1,1.1C1.6,24.9,8.1,31,16,31c8.5,0,15.4-7.1,15-15.7C30.6,7.6,24.2,1.3,16.5,1
	C10.3,0.8,5,4.3,2.5,9.4h4.7C9.2,6.7,12.4,5,16,5c6.8,0,12.1,6.1,10.8,13.1c-0.8,4.4-4.3,7.9-8.7,8.7C11.4,28,5.5,23.2,5,16.9
	C5,16.4,4.5,16,4,16z"/>
<g>
	<polygon class="st0" points="2.7,12.6 10.6,11.2 1.4,4.7 	"/>
</g>
</svg>
